HIERARCHY
ROOT Hips
{
	OFFSET 0.000000 0.000000 0.000000
	CHANNELS 6 Xposition Yposition Zposition Xrotation Yrotation Zrotation
	JOINT LeftUpLeg_virtual
	{
		OFFSET 0.000000 0.000000 0.000000
		CHANNELS 3 Xrotation Yrotation Zrotation
		JOINT LeftUpLeg
		{
			OFFSET 11.394100 -6.187798 -0.413800
			CHANNELS 3 Xrotation Yrotation Zrotation
			JOINT LeftLeg
			{
				OFFSET 0.430247 -32.302673 3.732800
				CHANNELS 3 Xrotation Yrotation Zrotation
				JOINT LeftFoot
				{
					OFFSET -0.430247 -48.264931 -6.423300
					CHANNELS 3 Xrotation Yrotation Zrotation
					JOINT LeftToeBase
					{
						OFFSET 4.230900 -16.068199 23.438400
						CHANNELS 3 Xrotation Yrotation Zrotation
						JOINT LeftToe_End
						{
							OFFSET 4.510700 0.695400 19.974600
							CHANNELS 3 Xrotation Yrotation Zrotation
							End Site
							{
								OFFSET 0 0 0
							}
						}
					}
				}
			}
		}
	}
	JOINT RightUpLeg_virtual
	{
		OFFSET 0.000000 0.000000 0.000000
		CHANNELS 3 Xrotation Yrotation Zrotation
		JOINT RightUpLeg
		{
			OFFSET -11.333700 -6.187798 -0.413800
			CHANNELS 3 Xrotation Yrotation Zrotation
			JOINT RightLeg
			{
				OFFSET -0.430392 -32.302628 3.733000
				CHANNELS 3 Xrotation Yrotation Zrotation
				JOINT RightFoot
				{
					OFFSET 0.430392 -48.264973 -6.423500
					CHANNELS 3 Xrotation Yrotation Zrotation
					JOINT RightToeBase
					{
						OFFSET -4.230900 -16.068199 23.438400
						CHANNELS 3 Xrotation Yrotation Zrotation
						JOINT RightToe_End
						{
							OFFSET -4.510700 0.695400 19.974600
							CHANNELS 3 Xrotation Yrotation Zrotation
							End Site
							{
								OFFSET 0 0 0
							}
						}
					}
				}
			}
		}
	}
	JOINT Spine_virtual
	{
		OFFSET 0.000000 0.000000 0.000000
		CHANNELS 3 Xrotation Yrotation Zrotation
		JOINT Spine
		{
			OFFSET -0.002400 12.777504 0.315300
			CHANNELS 3 Xrotation Yrotation Zrotation
			JOINT Spine1
			{
				OFFSET -0.002067 5.816869 0.032633
				CHANNELS 3 Xrotation Yrotation Zrotation
				JOINT Spine1_split
				{
					OFFSET -0.002067 5.816869 0.032633
					CHANNELS 3 Xrotation Yrotation Zrotation
					JOINT Spine2
					{
						OFFSET -0.002067 5.816869 0.032633
						CHANNELS 3 Xrotation Yrotation Zrotation
						JOINT Neck_virtual
						{
							OFFSET 0.000000 0.000000 0.000000
							CHANNELS 3 Xrotation Yrotation Zrotation
							JOINT Neck
							{
								OFFSET -0.003700 21.199493 -0.826900
								CHANNELS 3 Xrotation Yrotation Zrotation
								JOINT Head
								{
									OFFSET 0.000000 20.442200 4.834800
									CHANNELS 3 Xrotation Yrotation Zrotation
									JOINT HeadTop_End
									{
										OFFSET 0.000000 34.668396 4.968400
										CHANNELS 3 Xrotation Yrotation Zrotation
										End Site
										{
											OFFSET 0 0 0
										}
									}
								}
							}
						}
						JOINT LeftShoulder_virtual
						{
							OFFSET 0.000000 0.000000 0.000000
							CHANNELS 3 Xrotation Yrotation Zrotation
							JOINT LeftShoulder
							{
								OFFSET 3.288150 8.794197 -1.372250
								CHANNELS 3 Xrotation Yrotation Zrotation
								JOINT LeftShoulder_split
								{
									OFFSET 3.288150 8.794197 -1.372250
									CHANNELS 3 Xrotation Yrotation Zrotation
									JOINT LeftArm
									{
										OFFSET 11.953299 -2.279007 -0.146200
										CHANNELS 3 Xrotation Yrotation Zrotation
										JOINT LeftForeArm
										{
											OFFSET 18.448900 0.000000 0.000000
											CHANNELS 3 Xrotation Yrotation Zrotation
											JOINT LeftHand
											{
												OFFSET 29.527798 0.000000 0.000000
												CHANNELS 3 Xrotation Yrotation Zrotation
												End Site
												{
													OFFSET 0 0 0
												}
											}
										}
									}
								}
							}
						}
						JOINT RightShoulder_virtual
						{
							OFFSET 0.000000 0.000000 0.000000
							CHANNELS 3 Xrotation Yrotation Zrotation
							JOINT RightShoulder
							{
								OFFSET -3.249400 8.794197 -1.372250
								CHANNELS 3 Xrotation Yrotation Zrotation
								JOINT RightShoulder_split
								{
									OFFSET -3.249400 8.794197 -1.372250
									CHANNELS 3 Xrotation Yrotation Zrotation
									JOINT RightArm
									{
										OFFSET -11.953299 -2.279007 -0.146200
										CHANNELS 3 Xrotation Yrotation Zrotation
										JOINT RightForeArm
										{
											OFFSET -18.448900 0.000000 0.000000
											CHANNELS 3 Xrotation Yrotation Zrotation
											JOINT RightHand
											{
												OFFSET -29.527802 0.000000 0.000000
												CHANNELS 3 Xrotation Yrotation Zrotation
												End Site
												{
													OFFSET 0 0 0
												}
											}
										}
									}
								}
							}
						}
					}
				}
			}
		}
	}
}
MOTION
Frames: 9
Frame Time: 0.03333333
4.116402 151.174179 -6.727337 0.000000 0.000000 0.000000 4.981151 27.898480 -0.870487 -54.726037 -3.534850 -2.189844 59.582950 12.059454 0.147516 24.983403 4.328779 -12.623856 1.480183 4.165834 5.139964 0.000000 0.000000 0.000000 7.156962 28.821267 -1.508545 -32.746679 -9.734218 -14.793365 50.539196 10.172204 2.358904 9.985311 -18.896225 16.163347 -10.296897 10.279346 -1.914033 0.000000 0.000000 0.000000 5.571408 27.597562 -0.618948 -3.135424 0.345201 13.925478 -4.197050 4.716993 -1.228699 0.080705 -0.708619 -0.037395 0.000000 0.000000 0.000000 5.208437 6.717144 0.107115 -13.745734 28.097011 -9.645328 -93.095916 -54.300694 -75.173711 0.000000 0.000000 0.000000 -2.912547 5.359497 -1.541253 14.916882 -8.200423 37.997118 12.538463 3.965546 2.047288 -66.891246 -23.832331 9.082490 -33.795189 -16.480644 1.775229 0.000000 0.000000 0.000000 -1.538438 4.618862 1.200530 -6.168576 -19.441261 -41.312218 1.976059 3.612169 -4.936649 -75.734408 23.029477 -7.032029 -48.752760 27.634676 36.585174 0.000000 0.000000 0.000000 
4.026614 151.775665 -9.567921 0.000000 0.000000 0.000000 4.529237 25.809536 -0.483011 -55.005846 -4.274913 -3.068067 61.083085 10.860189 0.570469 25.122971 2.290400 -14.508394 1.375664 3.807309 6.330992 0.000000 0.000000 0.000000 7.196197 27.058539 -1.236258 -31.561150 -10.117319 -13.871923 55.095776 10.958287 1.885218 11.439074 -19.292464 14.582278 -11.819951 10.288617 -0.120949 0.000000 0.000000 0.000000 6.280728 26.645237 -0.489829 -3.515795 0.257066 13.692311 -4.289078 4.735479 -1.256046 0.058148 -0.621947 -0.115153 0.000000 0.000000 0.000000 5.310902 6.681224 -0.004182 -14.241464 27.162221 -8.532438 -92.468242 -55.104662 -74.663967 0.000000 0.000000 0.000000 -2.921939 5.288381 -1.420494 14.830829 -8.357881 38.977694 10.833016 4.368078 1.046932 -68.863914 -26.229463 7.333266 -32.291048 -16.641491 3.319557 0.000000 0.000000 0.000000 -1.106359 4.620248 1.260538 -6.617434 -19.391144 -41.994421 3.634896 2.336867 -4.942646 -79.121970 21.020747 -4.582598 -51.241674 28.969950 38.025849 0.000000 0.000000 0.000000 
4.011943 153.355850 -13.532402 0.000000 0.000000 0.000000 3.553311 21.521544 0.027997 -54.430764 -4.980426 -4.642860 62.434909 9.214876 0.998175 23.512901 0.447592 -14.961562 0.719489 3.236815 6.894209 0.000000 0.000000 0.000000 6.747974 22.788849 -0.738132 -27.559555 -9.985070 -12.291413 55.166745 11.630003 1.246910 15.808148 -18.937283 14.690596 -20.232231 9.451798 3.053032 0.000000 0.000000 0.000000 6.648504 23.974589 -0.446786 -3.301420 0.849607 12.957230 -4.123853 4.882979 -0.870601 0.076437 -0.460373 -0.202693 0.000000 0.000000 0.000000 5.278550 6.869258 0.313436 -15.649550 25.672371 -6.295329 -91.562190 -56.678542 -74.368855 0.000000 0.000000 0.000000 -2.917275 5.313111 -0.928720 14.419397 -6.699446 40.050918 9.178609 4.927598 -0.921489 -75.296764 -26.480647 3.487609 -32.815623 -19.109052 4.271872 0.000000 0.000000 0.000000 -0.793577 4.794474 1.746307 -7.218713 -19.368338 -42.987244 4.529191 1.420738 -4.641828 -82.641498 18.894846 -0.911703 -52.426790 28.395202 37.479352 0.000000 0.000000 0.000000 
3.752772 155.561829 -17.418278 0.000000 0.000000 0.000000 2.688427 15.790566 0.456794 -53.383444 -5.293040 -6.070214 62.898092 8.097127 0.937582 20.415511 -0.155998 -12.999737 2.423803 2.726863 5.443511 0.000000 0.000000 0.000000 5.779283 15.576518 -0.104133 -22.002768 -9.449540 -10.669448 49.437951 12.185417 0.566192 19.890657 -18.197687 15.137921 -29.510942 7.829693 5.966833 0.000000 0.000000 0.000000 6.716283 18.822601 -0.543130 -2.529750 2.094967 11.974706 -3.695209 5.206529 -0.169185 0.084678 -0.274710 -0.268099 0.000000 0.000000 0.000000 4.928705 7.350668 0.945018 -17.668912 23.734200 -3.351197 -90.283790 -58.557561 -74.215114 0.000000 0.000000 0.000000 -2.691301 5.531318 -0.183865 13.754941 -3.603432 40.936046 8.090860 4.616748 -2.267064 -82.652666 -23.884372 -0.165759 -35.178292 -23.218222 4.480194 0.000000 0.000000 0.000000 -0.589825 5.253654 2.475575 -7.800459 -19.141276 -44.256648 4.077074 1.801044 -4.462254 -85.204247 17.254747 3.370400 -52.137252 26.226828 35.073062 0.000000 0.000000 0.000000 
3.492661 158.044708 -21.022915 0.000000 0.000000 0.000000 2.234215 8.625506 0.735505 -52.196610 -5.100361 -6.826816 61.200974 7.624523 0.372965 17.088104 0.684168 -9.006883 6.992030 2.254445 1.985873 0.000000 0.000000 0.000000 5.010130 6.200073 0.478547 -16.442996 -8.808554 -9.766272 39.563683 12.771576 -0.077566 22.151132 -17.291771 14.660446 -31.605693 6.986090 7.105595 0.000000 0.000000 0.000000 6.560447 11.399213 -0.713339 -1.396276 3.900883 10.926383 -3.082113 5.723036 0.730446 0.146127 -0.232256 -0.263764 0.000000 0.000000 0.000000 4.310777 8.084508 1.740610 -19.676781 21.584767 -0.153217 -88.240409 -60.321109 -73.958921 0.000000 0.000000 0.000000 -2.150493 6.021263 0.655161 12.976295 0.474452 41.419558 7.681289 3.334651 -2.392401 -88.163843 -19.477768 -2.074785 -38.763519 -27.333147 4.139548 0.000000 0.000000 0.000000 -0.472238 6.030836 3.249519 -8.337640 -18.446058 -45.871588 2.814087 3.566654 -4.164861 -86.102280 16.452589 7.608506 -50.851964 23.333635 31.566409 0.000000 0.000000 0.000000 
3.178104 160.501984 -24.599361 0.000000 0.000000 0.000000 2.086080 -0.197410 0.938092 -50.491210 -4.852389 -6.676613 56.747643 7.266832 -0.336244 14.964330 2.440121 -4.117077 10.969281 1.662304 -1.412033 0.000000 0.000000 0.000000 4.354657 -4.009916 0.992503 -12.781168 -8.805482 -10.002534 28.401880 13.015045 -0.283155 24.514881 -16.432219 13.795871 -25.219473 7.811471 5.778274 0.000000 0.000000 0.000000 6.316038 2.353815 -0.945236 -0.108347 6.137715 9.915048 -2.374290 6.414859 1.619780 0.280203 -0.278410 -0.158726 0.000000 0.000000 0.000000 3.599174 8.985738 2.518412 -21.120014 19.505096 2.877621 -84.731591 -61.499419 -72.960135 0.000000 0.000000 0.000000 -1.383182 6.770319 1.344098 12.379938 4.638535 41.242359 7.247748 1.698682 -1.187664 -90.336519 -14.360608 -1.633156 -42.554913 -30.047553 3.764287 0.000000 0.000000 0.000000 -0.287018 7.074188 3.850007 -8.636579 -16.999289 -47.607590 1.207834 5.214758 -3.738827 -85.428338 16.506479 11.310027 -49.235207 20.727698 27.835869 0.000000 0.000000 0.000000 
2.566051 162.301331 -27.924030 0.000000 0.000000 0.000000 2.179770 -10.930235 1.285859 -47.982506 -4.722223 -5.618654 50.179016 6.627623 -0.871248 14.746071 4.682627 0.121709 12.614439 1.123059 -3.940605 0.000000 0.000000 0.000000 3.981927 -14.295387 1.343366 -12.247187 -9.664334 -11.462553 19.116455 13.053529 -0.141059 28.727625 -15.007876 14.998286 -15.692658 9.561475 0.922110 0.000000 0.000000 0.000000 6.029031 -7.908330 -1.008143 1.026535 8.572527 9.006617 -1.656524 7.232678 2.280648 0.395421 -0.335012 -0.042823 0.000000 0.000000 0.000000 2.978151 9.899499 3.103699 -21.424698 17.880810 5.427099 -79.286140 -62.188401 -70.953351 0.000000 0.000000 0.000000 -0.566205 7.680567 1.725581 12.193842 8.083687 40.680999 6.653246 0.975746 0.663283 -90.064172 -9.837407 -0.007202 -46.153559 -30.935040 3.710655 0.000000 0.000000 0.000000 0.033195 8.262026 4.119167 -8.559042 -14.881807 -49.193140 -0.448941 6.006076 -3.368083 -83.815594 17.016954 14.445244 -47.585399 19.226231 24.384547 0.000000 0.000000 0.000000 
1.903089 162.777039 -30.857708 0.000000 0.000000 0.000000 2.292577 -21.931789 1.684256 -44.410983 -4.446102 -3.767323 42.932086 5.498608 -1.088615 16.144726 6.990708 2.576399 12.400681 0.745481 -5.653190 0.000000 0.000000 0.000000 3.900301 -24.097386 1.598450 -14.609478 -10.519822 -13.653303 13.136938 13.221773 0.021974 34.015910 -12.461075 18.894270 -8.086427 11.105392 -7.002218 0.000000 0.000000 0.000000 5.640035 -18.356779 -0.628112 1.813059 10.939472 8.137132 -0.863757 8.082702 2.562622 0.375225 -0.487200 -0.024151 0.000000 0.000000 0.000000 2.631406 10.723888 3.379756 -20.304776 16.893904 7.393522 -71.565834 -62.540805 -67.564682 0.000000 0.000000 0.000000 0.109357 8.642216 1.775391 12.494947 10.385083 39.920926 5.761577 2.073396 2.373520 -89.495805 -7.484211 0.619936 -48.973693 -30.394410 4.090331 0.000000 0.000000 0.000000 0.481027 9.365067 4.004423 -7.919610 -12.057479 -50.428834 -1.725052 4.675376 -2.792335 -82.298643 17.261148 17.053685 -45.957116 19.054413 21.371237 0.000000 0.000000 0.000000 
1.310522 161.494247 -33.498516 0.000000 0.000000 0.000000 2.212855 -31.653453 1.952288 -39.976431 -3.646681 -1.258861 36.263964 4.022805 -1.048136 18.055648 8.598109 3.295441 11.779687 0.396303 -6.598704 0.000000 0.000000 0.000000 3.842656 -33.186537 1.855807 -18.370419 -10.378056 -15.437816 9.671438 12.805406 0.031373 37.555922 -10.428467 22.747812 -3.532455 12.098207 -15.511438 0.000000 0.000000 0.000000 5.121912 -28.350104 0.248022 2.151949 12.883427 7.217024 0.052013 8.877006 2.410177 0.279302 -0.593700 -0.037457 0.000000 0.000000 0.000000 2.655975 11.371535 3.290008 -17.851481 16.508627 8.858066 -61.789170 -62.854331 -62.585563 0.000000 0.000000 0.000000 0.522629 9.518809 1.488578 13.145314 11.487679 38.729853 4.801300 3.505656 3.269669 -90.250520 -7.474582 -0.990398 -50.741076 -30.061971 4.288914 0.000000 0.000000 0.000000 1.036306 10.202318 3.575141 -6.589745 -8.659164 -51.103793 -1.995447 1.312688 -2.014305 -82.529265 16.807381 19.589196 -44.436784 20.118853 18.811634 0.000000 0.000000 0.000000 
